<?xml version="1.0" encoding="utf-8"?>
<!-- Generator: Adobe Illustrator 27.2.0, SVG Export Plug-In . SVG Version: 6.00 Build 0)  -->
<svg version="1.1" id="Layer_1" xmlns="http://www.w3.org/2000/svg" xmlns:xlink="http://www.w3.org/1999/xlink" x="0px" y="0px"
	 viewBox="0 0 401.3 401.3" style="enable-background:new 0 0 401.3 401.3;" xml:space="preserve">
<style type="text/css">
	.st0{fill-rule:evenodd;clip-rule:evenodd;fill:url(#SVGID_1_);stroke:#231F20;stroke-miterlimit:10;}
	.st1{fill-rule:evenodd;clip-rule:evenodd;fill:#00FFFF;}
	.st2{display:none;}
	.st3{display:inline;fill:#00FFFF;}
	.st4{fill:#00FFFF;}
</style>
<linearGradient id="SVGID_1_" gradientUnits="userSpaceOnUse" x1="112.6907" y1="-41.0161" x2="312.4145" y2="507.7204">
	<stop  offset="0" style="stop-color:#0B1E24"/>
	<stop  offset="0.3874" style="stop-color:#0C2127"/>
	<stop  offset="0.7122" style="stop-color:#0E2C31"/>
	<stop  offset="1" style="stop-color:#113C40"/>
</linearGradient>
<rect class="st0" width="401.3" height="401.3"/>
<path class="st1" d="M319.4,95.1c-14.7,0.6-26.3,3.9-34.8,9.9s-13.7,14.8-15.5,26.2c-0.4,2.5-0.8,6.9-0.8,8.7v0.9h39.8v-1.1
	c0-5.2,3.2-9.4,8.6-11.1c2.9-0.9,5.7-1.2,10.1-1.1c3.3,0.1,4.1,0.2,5.8,0.6c5.4,1.4,8,4.7,7.8,9.5c-0.2,4.7-4.1,8-14,12
	c-1.4,0.5-5.9,2.2-10,3.7c-11,4-15.3,5.7-20.6,8.4c-16,8-24.9,18.4-27.8,32.5c-0.8,3.9-1,7.1-1,17.9v10.2h112.7v-30.9h-65.1l1-1.5
	c2.3-3.3,6-6.1,11.4-8.7c3.9-1.9,5.8-2.7,14.7-5.8c9.1-3.3,11.1-4.1,15.8-6.4c5.7-2.8,9.4-5.3,12.9-8.7c5.1-5.1,8-10.9,9.2-18.6
	c0.4-2.7,0.5-9.3,0.1-11.9c-1.2-8.5-4.2-14.8-9.7-20.3s-12.3-9.1-22-11.6C340.5,95.7,329.6,94.7,319.4,95.1z M132.1,98.3v124
	l41.5-0.1h4.3l0,0l0,0c33.4-0.1,38-0.1,42.5-0.6c0.7-0.1,1.5-0.2,2.3-0.3l0,0l0,0c0.2,0,0.4-0.1,0.7-0.1c5.7-0.8,12.6-2.7,16.9-4.7
	c7.5-3.4,12.8-8.2,15.9-14.4c1.9-3.7,2.8-7.2,3.2-12.1c0.6-7.5-1-14.2-4.7-19.8c-2.7-4-8.2-8.7-13.4-11.3l-1-0.5v-2.5l2.2-1.3
	c6.6-3.9,10.4-8.2,12.4-14c1.1-3.2,1.3-4.6,1.3-9.5c0-4.8-0.3-7-1.4-10.4c-3.7-11.4-14-18.7-30.1-21.3c-0.2,0-0.4-0.1-0.6-0.1l0,0
	l0,0l0,0c-0.7-0.1-1.3-0.2-2-0.3c-4.3-0.6-8.7-0.6-43.3-0.7h-4.4L132.1,98.3z M208,129.7c3.9,0.6,6.3,1.9,7.9,4.3
	c1.1,1.6,1.5,3.2,1.4,5.5s-0.7,3.6-2.1,5.2c-1.6,1.7-3.9,2.8-6.9,3.2c-0.8,0.1-7.6,0.2-18.3,0.2h-17v-18.7h16.6
	C203,129.4,206.5,129.5,208,129.7z M210.4,170.9c5.1,1.5,7.9,4.8,7.9,9.5c0,3-0.9,5.2-3,7.2c-1.3,1.3-3.2,2.3-5.3,2.9
	c-1.5,0.4-1.7,0.4-19.3,0.5l-17.8,0.1v-20.7l18,0.1C208.7,170.5,208.9,170.5,210.4,170.9z M87.8,150.1h33.3v48.1v24.1h-100v-24.1
	h33.3v-24.1h33.3L87.8,150.1L87.8,150.1z"/>
<g class="st2">
	<path class="st3" d="M55.4,274.7H34.7l-2.6,7.1H21.8l16.3-42h14l16.3,42H58L55.4,274.7z M52.6,267.2l-6.6-18h-1.9l-6.6,18H52.6z"/>
	<path class="st3" d="M71.1,239.8h11.6l19.5,28.3h0.9v-28.3h9.8v42h-11.4l-19.8-28.3h-0.9v28.3H71L71.1,239.8L71.1,239.8L71.1,239.8
		z"/>
	<path class="st3" d="M149.2,274.7h-20.7l-2.6,7.1h-10.3l16.3-42h14l16.3,42h-10.4L149.2,274.7z M146.4,267.2l-6.6-18h-1.9l-6.6,18
		H146.4z"/>
	<path class="st3" d="M164.9,239.8h10v33.7H199v8.4h-34.2L164.9,239.8L164.9,239.8z"/>
	<path class="st3" d="M215.1,268.3v13.5h-10v-13.5l-17.3-28.5h10.6l11.2,18.8h1l11.2-18.8h10.6L215.1,268.3z"/>
	<path class="st3" d="M275.7,248.1h-15.8v33.7h-10v-33.7h-15.7v-8.4h41.5V248.1z"/>
	<path class="st3" d="M279.7,239.8h10v42h-10V239.8z"/>
	<path class="st3" d="M293.2,260.8c0-13.2,9.4-22.4,23-22.4c9.2,0,18.7,4.1,20.7,16.5h-9.6c-1.8-5.4-6-7.8-11.2-7.8
		c-7.5,0-13.2,5.7-13.2,13.8c0,8,5.7,13.8,13.2,13.8c5.2,0,9.4-2.4,11.2-7.9h9.6c-2,12.4-11.4,16.5-20.7,16.5
		C302.6,283.2,293.2,274,293.2,260.8z"/>
	<path class="st3" d="M339.4,268.8h9c0.4,4,3.6,6.5,10.5,6.5c6.5,0,10.1-2.2,10.1-5.5c0-2.9-2.4-4.3-7.4-5.2l-5.2-0.9
		c-8-1.4-15.9-3.5-15.9-12.7c0-8,6.7-12.7,18.5-12.7c11,0,18.6,3.8,18.7,14.3h-9c-0.7-3.8-3.6-6.4-9.9-6.4c-5.7,0-8.7,2-8.7,5.2
		c0,2.5,2,4.2,6.4,5l4.5,0.8c8,1.5,17.9,2.8,17.9,12.9c0,8.4-6.9,13.1-20,13.1C346.1,283.2,339.4,278.6,339.4,268.8z"/>
</g>
<g>
	<path class="st4" d="M54.5,282.9h-17l-1.7,5.7H22.3l14.6-43h18.3l14.6,43H56.3L54.5,282.9z M51.3,272.4l-4.2-13.5h-2.3l-4.2,13.5
		H51.3z"/>
	<path class="st4" d="M71.7,245.6h15l13.2,23.2h1.2v-23.2h12.8v43H99.1l-13.5-23.2h-1.2v23.2H71.7V245.6z"/>
	<path class="st4" d="M147.9,282.9h-17l-1.7,5.7h-13.5l14.6-43h18.3l14.6,43h-13.5L147.9,282.9z M144.7,272.4l-4.2-13.5h-2.3
		l-4.2,13.5H144.7z"/>
	<path class="st4" d="M165.1,245.6h13.1v31.2h21.2v11.8h-34.2v-43H165.1z"/>
	<path class="st4" d="M216.6,275.2v13.4h-13.1v-13.4l-16.2-29.6H201l8.5,16.2h1l8.5-16.2h13.7L216.6,275.2z"/>
	<path class="st4" d="M275.4,257.4h-14.3v31.2H248v-31.2h-14.3v-11.8h41.6v11.8H275.4z"/>
	<path class="st4" d="M278.4,245.6h13.1v43h-13.1V245.6z"/>
	<path class="st4" d="M294.1,267.1c0-13.8,8.9-22.9,22.3-22.9c9.7,0,19.6,4.6,20.9,19.1h-12.5c-1.1-4.7-4.2-6.9-8.5-6.9
		c-5.2,0-9.3,4.2-9.3,10.7s4.1,10.7,9.3,10.7c4.3,0,7.4-2.2,8.5-7h12.5c-1.3,14.6-11.1,19.2-20.9,19.2
		C303,290,294.1,280.9,294.1,267.1z"/>
	<path class="st4" d="M339,274.2h11.8c0.1,2.9,2.4,4.7,8.1,4.8c5,0.1,7.3-1.5,7.3-3.5c0-1.4-0.7-2.8-4.6-3.4l-5.1-0.9
		c-7.5-1.3-16.5-2.3-16.5-13.3c0-8.5,6.4-13.7,19-13.7c11.4,0,19.3,3.4,19.1,15.7h-11.7c-0.5-2.9-2.7-4.7-7.7-4.7
		c-4.3,0-6.1,1.4-6.1,3.4c0,1.2,0.7,2.7,3.7,3.2l4.2,0.8c7.9,1.4,18.7,1.7,18.7,13.5c0,9.4-6.7,14-20.3,14
		C345.1,290,338.6,285.4,339,274.2z"/>
</g>
</svg>
